<?xml version="1.0" encoding="UTF-8"?> <svg xmlns="http://www.w3.org/2000/svg" width="180" height="90" viewBox="0 0 180 90" fill="none"><g clip-path="url(#clip0_1296_52248)"><path d="M15.46 60.6802C6.9 60.6802 0 53.8102 0 45.3002C0 36.8202 6.96 29.9602 15.48 30.0002C24.06 30.0402 30.94 36.8802 30.92 45.3402C30.9 53.8302 24 60.6702 15.46 60.6702V60.6802ZM9.12 32.6602C6.46 33.7202 4.33 35.4102 2.88 37.9102C1.58 40.1602 1.16 42.6002 1.4 45.1702C1.38 46.4702 1.68 47.7202 2.12 48.9202C4.32 54.9302 10.36 58.4402 16.7 57.4102C26.1 55.8902 30.84 45.0902 25.46 37.2802C22.26 32.6302 17.69 30.8502 12.12 31.6802C11.08 31.8302 10.04 32.1102 9.11 32.6602H9.12Z" fill="#3C3834"></path><path d="M1.40013 45.17C1.16013 42.6 1.58013 40.17 2.88013 37.91C4.32013 35.41 6.46013 33.72 9.12013 32.66C9.27013 32.63 9.41013 32.61 9.55013 32.56C11.4301 31.99 13.3301 31.88 15.2701 32.23C21.9801 33.43 26.2601 40.23 24.4101 46.79C22.8301 52.41 17.3301 56.04 11.5101 55.2C7.30013 54.6 4.27013 52.31 2.40013 48.49C1.88013 47.44 1.65013 46.3 1.40013 45.16V45.17ZM10.8701 35.57C10.2001 35.57 9.54013 35.57 8.87013 35.57C8.29013 35.57 7.74013 35.68 7.28013 36.05C6.08013 37.02 4.88013 38 3.69013 38.99C3.32013 39.29 3.24013 39.66 3.44013 40.1C4.14013 41.64 4.82013 43.19 5.51013 44.74C5.77013 45.33 6.18013 45.71 6.83013 45.84C7.24013 45.92 7.64013 46.03 8.04013 46.13C8.76013 46.3 8.77013 46.3 8.65013 47.02C8.53013 47.77 8.66013 48.47 9.19013 49.02C10.4901 50.38 11.8201 51.7 13.1401 53.04C13.4201 53.33 13.7401 53.38 14.1001 53.25C15.8401 52.63 17.5801 52.02 19.3101 51.39C19.8801 51.18 20.2201 50.77 20.4001 50.19C21.0001 48.2 21.6301 46.22 22.2401 44.24C22.4401 43.58 22.3401 43.32 21.7501 42.95C20.4001 42.1 19.0401 41.27 17.6901 40.41C16.9901 39.96 16.2601 39.71 15.4201 39.92C15.0601 40.01 14.9401 39.86 14.8501 39.52C14.5901 38.47 14.2801 37.44 13.9801 36.4C13.7901 35.75 13.5601 35.58 12.8601 35.58C12.1901 35.58 11.5301 35.58 10.8601 35.58L10.8701 35.57Z" fill="white"></path><path d="M1.3999 45.1701C1.6499 46.3001 1.8799 47.4401 2.3999 48.5001C4.2699 52.3201 7.2999 54.6101 11.5099 55.2101C17.3299 56.0401 22.8299 52.4201 24.4099 46.8001C26.2599 40.2401 21.9799 33.4301 15.2699 32.2401C13.3299 31.8901 11.4299 32.0001 9.5499 32.5701C9.4099 32.6101 9.2599 32.6401 9.1199 32.6701C10.0499 32.1201 11.0799 31.8401 12.1299 31.6901C17.6999 30.8601 22.2699 32.6401 25.4699 37.2801C30.8599 45.1001 26.1099 55.8901 16.7099 57.4101C10.3699 58.4401 4.3299 54.9301 2.1299 48.9201C1.6899 47.7201 1.3899 46.4701 1.4099 45.1701H1.3999Z" fill="#F3B210"></path><path d="M10.87 35.5696C11.54 35.5696 12.2 35.5696 12.87 35.5696C13.57 35.5696 13.8 35.7396 13.99 36.3896C14.29 37.4296 14.6 38.4596 14.86 39.5096C14.95 39.8596 15.07 39.9996 15.43 39.9096C16.26 39.6996 16.99 39.9496 17.7 40.3996C19.04 41.2596 20.4 42.0996 21.76 42.9396C22.35 43.3096 22.45 43.5696 22.25 44.2296C21.63 46.2096 21.01 48.1896 20.41 50.1796C20.23 50.7696 19.89 51.1796 19.32 51.3796C17.58 51.9996 15.85 52.6196 14.11 53.2396C13.75 53.3696 13.43 53.3196 13.15 53.0296C11.84 51.6896 10.5 50.3596 9.19995 49.0096C8.66995 48.4596 8.53995 47.7596 8.65995 47.0096C8.77995 46.2896 8.76995 46.2896 8.04995 46.1196C7.64995 46.0296 7.23995 45.9096 6.83995 45.8296C6.18995 45.7096 5.77995 45.3196 5.51995 44.7296C4.83995 43.1796 4.14995 41.6296 3.44995 40.0896C3.24995 39.6396 3.32995 39.2796 3.69995 38.9796C4.88995 37.9996 6.08995 37.0196 7.28995 36.0396C7.74995 35.6696 8.30995 35.5596 8.87995 35.5596C9.54995 35.5596 10.21 35.5596 10.88 35.5596L10.87 35.5696ZM10.53 40.5096L11.49 40.3796C12.38 40.2796 13.27 40.1796 14.16 40.0896C14.42 40.0596 14.53 39.9796 14.43 39.6796C14.15 38.7896 13.92 37.8896 13.66 36.9996C13.53 36.5496 13.41 36.5196 13.06 36.8596C12.16 37.7196 11.26 38.5896 10.37 39.4596C10.22 39.5996 10.1 39.7496 10.03 39.9496C9.95995 40.1596 9.86995 40.3996 10.02 40.5696C10.15 40.7296 10.35 40.5196 10.52 40.5296L10.53 40.5096ZM9.09995 47.2396C9.13995 47.9796 9.35995 48.5296 9.79995 48.9696C10.87 50.0196 11.95 51.0596 13.03 52.0896C13.38 52.4196 13.49 52.3796 13.61 51.9096C14.1 49.9396 14.58 47.9696 15.06 45.9996C15.19 45.4596 15.03 45.0096 14.58 44.6796C13.24 43.7296 11.89 42.7896 10.54 41.8396C10.19 41.5996 10.05 41.6996 9.98995 42.0896C9.88995 42.7596 9.75995 43.4296 9.63995 44.0996C9.45995 45.1796 9.26995 46.2596 9.10995 47.2296L9.09995 47.2396ZM14.42 52.4296C14.48 52.4096 14.55 52.3996 14.61 52.3696C16.05 51.8496 17.49 51.3396 18.93 50.8196C19.43 50.6396 19.76 50.2896 19.92 49.7696C20.44 48.0696 20.97 46.3696 21.49 44.6696C21.6 44.2996 21.52 44.1696 21.12 44.2496C19.62 44.5596 18.12 44.8496 16.62 45.1496C16.05 45.2596 15.71 45.5896 15.57 46.1496C15.36 47.0396 15.13 47.9196 14.92 48.8096C14.67 49.8596 14.42 50.9096 14.18 51.9696C14.14 52.1596 14.02 52.4296 14.41 52.4196L14.42 52.4296ZM16.09 40.4196C14.5 40.5796 12.92 40.7496 11.33 40.9096C11.09 40.9296 10.85 40.9496 10.77 41.2296C10.69 41.5196 10.91 41.6496 11.1 41.7796C12.37 42.6596 13.64 43.5396 14.91 44.4196C15.36 44.7396 15.84 44.8296 16.38 44.7196C17.78 44.4396 19.18 44.1696 20.58 43.8896C20.83 43.8396 21.14 43.8296 21.18 43.4796C21.22 43.1596 20.94 43.0696 20.74 42.9396C19.52 42.1996 18.29 41.4596 17.07 40.7196C16.77 40.5396 16.45 40.3996 16.08 40.4196H16.09ZM6.46995 39.9196C5.80995 39.8996 5.13995 39.8596 4.47995 39.8396C3.92995 39.8196 3.87995 39.8996 4.08995 40.3896C4.48995 41.2896 4.88995 42.1796 5.27995 43.0696C6.24995 45.2396 5.97995 45.0696 8.33995 45.6396C8.83995 45.7596 8.91995 45.5896 8.98995 45.1696C9.18995 43.9096 9.40995 42.6496 9.62995 41.3896C9.76995 40.6096 9.34995 40.0596 8.55995 40.0096C7.85995 39.9696 7.16995 39.9396 6.46995 39.9096V39.9196ZM6.69995 39.5296V39.6096C7.32995 39.6396 7.95995 39.6696 8.58995 39.7096C9.16995 39.7496 9.66995 39.5896 10.09 39.1796C10.97 38.3196 11.86 37.4696 12.74 36.6196C12.85 36.5096 13.04 36.4096 12.96 36.2196C12.88 36.0296 12.67 36.0896 12.52 36.0896C11.36 36.0896 10.19 36.1096 9.02995 36.1196C8.47995 36.1196 7.95995 36.2496 7.51995 36.5796C6.43995 37.3896 5.38995 38.2296 4.32995 39.0596C4.21995 39.1396 4.10995 39.2396 4.16995 39.3896C4.21995 39.5496 4.36995 39.5396 4.49995 39.5396C5.22995 39.5396 5.95995 39.5396 6.68995 39.5396L6.69995 39.5296Z" fill="#F3B210"></path><path d="M9.09984 47.2402C9.25984 46.2702 9.43984 45.1902 9.62984 44.1102C9.73984 43.4402 9.87984 42.7702 9.97984 42.1002C10.0398 41.7002 10.1898 41.6002 10.5298 41.8502C11.8698 42.8002 13.2198 43.7402 14.5698 44.6902C15.0298 45.0102 15.1798 45.4702 15.0498 46.0102C14.5698 47.9802 14.0898 49.9502 13.5998 51.9202C13.4798 52.3902 13.3698 52.4302 13.0198 52.1002C11.9398 51.0602 10.8598 50.0302 9.78984 48.9802C9.34984 48.5402 9.11984 47.9902 9.08984 47.2502L9.09984 47.2402ZM11.3698 43.8302C11.3698 43.3702 11.1398 43.0002 10.8598 42.9802C10.5598 42.9602 10.3098 43.3002 10.3298 43.7402C10.3498 44.0902 10.4098 44.4902 10.8598 44.5002C11.2998 44.5102 11.3098 44.1002 11.3698 43.8302ZM12.6198 47.8902C12.6698 48.2202 12.6998 48.6402 13.1298 48.6702C13.5498 48.7002 13.6498 48.3002 13.6598 47.9602C13.6698 47.6002 13.5698 47.1902 13.1598 47.1602C12.7298 47.1202 12.6798 47.5302 12.6198 47.8902V47.8902ZM12.2198 50.0402C12.2598 50.3402 12.3298 50.7502 12.7698 50.7502C13.1798 50.7502 13.2698 50.3502 13.2698 50.0102C13.2698 49.6602 13.1898 49.2902 12.7498 49.2202C12.4598 49.1702 12.2198 49.5602 12.2298 50.0402H12.2198ZM11.0598 45.7602C10.9998 45.4102 10.9698 45.0402 10.5198 44.9802C10.2298 44.9402 9.97984 45.3202 10.0098 45.7502C10.0398 46.1002 10.1098 46.5002 10.5598 46.4902C10.9798 46.4802 11.0098 46.0802 11.0598 45.7502V45.7602ZM12.9898 45.7602C13.0498 46.0802 13.0698 46.5002 13.5198 46.5202C13.9498 46.5402 14.0398 46.1502 14.0398 45.8102C14.0398 45.4502 13.9598 45.0502 13.5198 45.0302C13.0898 45.0102 13.0398 45.4002 12.9898 45.7702V45.7602ZM10.7198 47.6202C10.6798 47.2702 10.6198 46.8602 10.1798 46.8702C9.76984 46.8702 9.69984 47.2702 9.69984 47.6202C9.69984 48.0602 9.94984 48.4402 10.2398 48.3902C10.6598 48.3202 10.6998 47.9702 10.7298 47.6102L10.7198 47.6202Z" fill="#3C3834"></path><path d="M14.4202 52.43C14.0302 52.43 14.1502 52.17 14.1902 51.98C14.4302 50.93 14.6802 49.87 14.9302 48.82C15.1402 47.93 15.3702 47.05 15.5802 46.16C15.7102 45.6 16.0602 45.27 16.6302 45.16C18.1302 44.87 19.6302 44.57 21.1302 44.26C21.5302 44.18 21.6102 44.31 21.5002 44.68C20.9702 46.38 20.4502 48.08 19.9302 49.78C19.7702 50.29 19.4402 50.65 18.9402 50.83C17.5002 51.35 16.0602 51.86 14.6202 52.38C14.5602 52.4 14.4902 52.42 14.4302 52.44L14.4202 52.43ZM20.6102 45.59C20.6102 45.25 20.4402 45.07 20.1402 45.08C19.7302 45.08 19.3002 45.6 19.3202 46.06C19.3302 46.36 19.4702 46.58 19.8002 46.57C20.2202 46.57 20.6202 46.07 20.6102 45.59ZM16.3802 50.28C16.3802 49.98 16.2502 49.76 15.9302 49.74C15.5202 49.71 15.0602 50.25 15.0802 50.73C15.0802 51.03 15.2202 51.24 15.5502 51.24C15.9502 51.24 16.3802 50.74 16.3802 50.28ZM19.5702 49.29C19.5502 49.06 19.4602 48.83 19.1202 48.82C18.7202 48.81 18.2802 49.3 18.2802 49.77C18.2802 50.09 18.3902 50.33 18.7602 50.32C19.1602 50.32 19.5802 49.81 19.5802 49.29H19.5702ZM15.9902 46.91C16.0102 47.16 16.1102 47.39 16.4402 47.42C16.8302 47.45 17.2702 46.96 17.2902 46.48C17.3002 46.16 17.2002 45.92 16.8302 45.92C16.4302 45.92 16.0002 46.41 15.9902 46.91V46.91Z" fill="#3C3834"></path><path d="M16.0901 40.4205C16.4601 40.4105 16.7701 40.5405 17.0801 40.7205C18.3001 41.4605 19.5301 42.1905 20.7501 42.9405C20.9501 43.0605 21.2301 43.1505 21.1901 43.4805C21.1501 43.8305 20.8401 43.8405 20.5901 43.8905C19.1901 44.1705 17.7901 44.4405 16.3901 44.7205C15.8601 44.8305 15.3701 44.7305 14.9201 44.4205C13.6501 43.5305 12.3801 42.6605 11.1101 41.7805C10.9201 41.6505 10.7001 41.5105 10.7801 41.2305C10.8501 40.9505 11.1001 40.9305 11.3401 40.9105C12.9301 40.7505 14.5101 40.5805 16.1001 40.4205H16.0901ZM16.1901 42.8205C16.4901 42.7805 16.8301 42.8005 16.8601 42.4705C16.8801 42.1905 16.5801 42.0905 16.3401 42.0305C16.2001 41.9905 16.0501 41.9605 15.9001 41.9605C15.6401 41.9605 15.2901 41.9305 15.2301 42.2405C15.1601 42.6005 15.5301 42.6605 15.7901 42.7405C15.9301 42.7805 16.0801 42.8005 16.1901 42.8205V42.8205ZM12.5801 41.2005C12.5801 41.2005 12.4301 41.2005 12.3201 41.2305C12.1701 41.2605 12.0301 41.3305 12.0001 41.4905C11.9701 41.6605 12.1001 41.7605 12.2301 41.8405C12.5901 42.0505 12.9801 42.0805 13.3801 41.9905C13.5001 41.9605 13.6301 41.8905 13.6601 41.7405C13.6901 41.5905 13.5801 41.5005 13.4701 41.4205C13.2301 41.2505 12.9601 41.2105 12.5901 41.2105L12.5801 41.2005ZM19.5401 43.5905C19.7701 43.5505 20.1101 43.5805 20.1501 43.2605C20.1801 42.9805 19.8801 42.8905 19.6401 42.8105C19.3701 42.7305 19.0901 42.6905 18.8101 42.7805C18.6701 42.8305 18.5201 42.8805 18.5001 43.0605C18.4801 43.2405 18.6301 43.3205 18.7501 43.4005C18.9801 43.5305 19.2401 43.5805 19.5401 43.6005V43.5905ZM15.6301 43.1205C15.6301 43.1205 15.5201 43.1205 15.4601 43.1205C15.2601 43.1505 15.0401 43.1805 15.0101 43.4205C14.9801 43.6405 15.1701 43.7205 15.3301 43.8105C15.6201 43.9605 15.9301 43.9805 16.2501 43.9405C16.4401 43.9205 16.6301 43.8505 16.6501 43.6405C16.6801 43.4305 16.4901 43.3205 16.3301 43.2505C16.1201 43.1605 15.9001 43.0905 15.6301 43.1205ZM16.3901 41.7405C16.4901 41.7405 16.5901 41.7405 16.6901 41.7205C16.8601 41.6905 17.0301 41.6205 17.0601 41.4405C17.0901 41.2505 16.9301 41.1405 16.7801 41.0705C16.4301 40.9005 16.0501 40.8605 15.6801 40.9605C15.5601 40.9905 15.4301 41.0605 15.4101 41.2105C15.3901 41.3705 15.4901 41.4505 15.6001 41.5305C15.8401 41.6905 16.1101 41.7505 16.4001 41.7405H16.3901Z" fill="#3C3834"></path><path d="M6.47024 39.9197C7.17024 39.9497 7.87024 39.9797 8.56024 40.0197C9.36024 40.0697 9.77024 40.6197 9.63024 41.3997C9.41024 42.6597 9.18024 43.9197 8.99024 45.1797C8.93024 45.5997 8.84024 45.7697 8.34024 45.6497C5.98024 45.0797 6.25024 45.2497 5.28024 43.0797C4.88024 42.1897 4.48024 41.2897 4.09024 40.3997C3.87024 39.8997 3.92024 39.8297 4.48024 39.8497C5.14024 39.8697 5.81024 39.9097 6.47024 39.9397V39.9197ZM7.47024 44.4797C7.47024 44.1097 6.99024 43.6097 6.66024 43.6297C6.42024 43.6397 6.31024 43.7897 6.31024 44.0197C6.31024 44.3697 6.75024 44.7997 7.09024 44.8097C7.34024 44.8097 7.45024 44.6797 7.47024 44.4897V44.4797ZM8.24024 40.9097C7.99024 40.8997 7.87024 41.0197 7.87024 41.2697C7.87024 41.6197 8.28024 42.0597 8.64024 42.0697C8.88024 42.0697 9.01024 41.9597 9.01024 41.7097C9.01024 41.3597 8.60024 40.9297 8.24024 40.9097Z" fill="#3C3834"></path><path d="M6.7102 39.5303C5.9802 39.5303 5.2502 39.5303 4.5202 39.5303C4.3902 39.5303 4.2402 39.5403 4.1902 39.3803C4.1402 39.2203 4.2502 39.1303 4.3502 39.0503C5.4102 38.2203 6.4602 37.3803 7.5402 36.5703C7.9702 36.2503 8.5002 36.1203 9.0502 36.1103C10.2102 36.1003 11.3802 36.0803 12.5402 36.0803C12.7002 36.0803 12.9002 36.0203 12.9802 36.2103C13.0602 36.4103 12.8802 36.5003 12.7602 36.6103C11.8802 37.4703 10.9902 38.3103 10.1102 39.1703C9.6902 39.5803 9.1902 39.7403 8.6102 39.7003C7.9802 39.6603 7.3502 39.6303 6.7202 39.6003V39.5203L6.7102 39.5303ZM8.9902 37.2903C8.5602 37.2903 8.0002 37.6803 8.0102 37.9603C8.0102 38.2203 8.2202 38.2203 8.4102 38.2203C8.8002 38.2203 9.3202 37.8603 9.3302 37.5803C9.3402 37.3203 9.1502 37.3103 8.9902 37.2903Z" fill="#3C3834"></path><path d="M10.5298 40.51C10.3598 40.5 10.1598 40.71 10.0298 40.55C9.88976 40.38 9.96976 40.14 10.0398 39.93C10.1098 39.74 10.2298 39.58 10.3798 39.44C11.2798 38.57 12.1698 37.71 13.0698 36.84C13.4198 36.5 13.5398 36.53 13.6698 36.98C13.9298 37.87 14.1598 38.77 14.4398 39.66C14.5398 39.97 14.4298 40.04 14.1698 40.07C13.2798 40.17 12.3898 40.27 11.4998 40.36C11.4098 40.08 11.2398 39.89 10.9298 39.93C10.6298 39.97 10.5798 40.24 10.5398 40.49L10.5298 40.51ZM13.6298 38.64C13.6298 38.21 13.3598 37.82 13.0698 37.84C12.7098 37.87 12.6298 38.15 12.6098 38.45C12.5798 38.83 12.8798 39.24 13.1698 39.21C13.5298 39.18 13.5998 38.9 13.6298 38.64Z" fill="#3C3834"></path><path d="M10.5298 40.5101C10.5598 40.2601 10.6198 40.0001 10.9198 39.9501C11.2298 39.9001 11.3998 40.1001 11.4898 40.3801C11.1698 40.4201 10.8498 40.4701 10.5298 40.5101V40.5101Z" fill="white"></path><path d="M11.3702 43.8401C11.3102 44.1201 11.3002 44.5301 10.8602 44.5101C10.4202 44.5001 10.3502 44.1001 10.3302 43.7501C10.3102 43.3101 10.5602 42.9701 10.8602 42.9901C11.1402 43.0101 11.3702 43.3901 11.3702 43.8401Z" fill="white"></path><path d="M12.6201 47.8996C12.6801 47.5396 12.7301 47.1396 13.1601 47.1696C13.5801 47.1996 13.6701 47.6096 13.6601 47.9696C13.6601 48.3096 13.5501 48.7096 13.1301 48.6796C12.7001 48.6496 12.6601 48.2296 12.6201 47.8996V47.8996Z" fill="white"></path><path d="M12.22 50.0499C12.21 49.5699 12.46 49.1799 12.74 49.2299C13.17 49.2999 13.26 49.6699 13.26 50.0199C13.26 50.3499 13.17 50.7499 12.76 50.7599C12.33 50.7599 12.26 50.3599 12.21 50.0499H12.22Z" fill="white"></path><path d="M11.0598 45.77C11.0098 46.09 10.9798 46.49 10.5598 46.51C10.1098 46.52 10.0398 46.12 10.0098 45.77C9.97977 45.34 10.2298 44.96 10.5198 45C10.9698 45.06 10.9998 45.43 11.0598 45.78V45.77Z" fill="white"></path><path d="M12.9902 45.7603C13.0402 45.4003 13.0902 45.0003 13.5202 45.0203C13.9602 45.0403 14.0402 45.4403 14.0402 45.8003C14.0402 46.1403 13.9502 46.5303 13.5202 46.5103C13.0702 46.4903 13.0502 46.0703 12.9902 45.7503V45.7603Z" fill="white"></path><path d="M10.7199 47.6298C10.6999 47.9898 10.6499 48.3298 10.2299 48.4098C9.94994 48.4598 9.68994 48.0798 9.68994 47.6398C9.68994 47.2898 9.75994 46.8998 10.1699 46.8898C10.6099 46.8798 10.6799 47.2898 10.7099 47.6398L10.7199 47.6298Z" fill="white"></path><path d="M20.6198 45.5901C20.6298 46.0701 20.2198 46.5701 19.8098 46.5701C19.4698 46.5701 19.3398 46.3601 19.3298 46.0601C19.3098 45.6001 19.7398 45.0901 20.1498 45.0801C20.4498 45.0801 20.6198 45.2501 20.6198 45.5901V45.5901Z" fill="white"></path><path d="M16.39 50.2805C16.39 50.7505 15.96 51.2405 15.56 51.2405C15.23 51.2405 15.1 51.0305 15.09 50.7305C15.08 50.2505 15.54 49.7105 15.94 49.7405C16.26 49.7605 16.39 49.9805 16.39 50.2805Z" fill="white"></path><path d="M19.5798 49.2905C19.5798 49.8105 19.1598 50.3205 18.7598 50.3205C18.3898 50.3205 18.2798 50.0805 18.2798 49.7705C18.2798 49.3105 18.7198 48.8105 19.1198 48.8205C19.4598 48.8205 19.5498 49.0605 19.5698 49.2905H19.5798Z" fill="white"></path><path d="M16 46.9101C16 46.4101 16.44 45.9101 16.84 45.9201C17.21 45.9201 17.31 46.1601 17.3 46.4801C17.28 46.9501 16.84 47.4501 16.45 47.4201C16.12 47.3901 16.02 47.1601 16 46.9101Z" fill="white"></path><path d="M16.19 42.8295C16.08 42.8095 15.93 42.7895 15.79 42.7495C15.52 42.6695 15.16 42.6095 15.23 42.2495C15.29 41.9395 15.64 41.9695 15.9 41.9695C16.05 41.9695 16.2 41.9995 16.34 42.0395C16.58 42.1095 16.89 42.2095 16.86 42.4795C16.83 42.8095 16.49 42.7895 16.19 42.8295V42.8295Z" fill="white"></path><path d="M12.5802 41.2004C12.9502 41.2004 13.2302 41.2404 13.4602 41.4104C13.5702 41.4904 13.6802 41.5704 13.6502 41.7304C13.6202 41.8804 13.4902 41.9504 13.3702 41.9804C12.9702 42.0804 12.5902 42.0404 12.2202 41.8304C12.0902 41.7504 11.9602 41.6604 11.9902 41.4804C12.0202 41.3204 12.1602 41.2404 12.3102 41.2204C12.4202 41.2004 12.5402 41.2004 12.5702 41.1904L12.5802 41.2004Z" fill="white"></path><path d="M19.54 43.5901C19.25 43.5701 18.98 43.5301 18.75 43.3901C18.62 43.3201 18.48 43.2301 18.5 43.0501C18.52 42.8701 18.67 42.8201 18.81 42.7701C19.09 42.6801 19.36 42.7201 19.64 42.8001C19.88 42.8701 20.19 42.9601 20.15 43.2501C20.11 43.5701 19.77 43.5501 19.54 43.5801V43.5901Z" fill="white"></path><path d="M15.6202 43.1203C15.8802 43.0903 16.1102 43.1603 16.3202 43.2503C16.4902 43.3203 16.6702 43.4303 16.6402 43.6403C16.6102 43.8503 16.4202 43.9103 16.2402 43.9403C15.9202 43.9803 15.6102 43.9603 15.3202 43.8103C15.1602 43.7303 14.9702 43.6503 15.0002 43.4203C15.0402 43.1803 15.2502 43.1503 15.4502 43.1203C15.5102 43.1203 15.5802 43.1203 15.6202 43.1203V43.1203Z" fill="white"></path><path d="M16.39 41.7403C16.1 41.7403 15.83 41.6903 15.59 41.5303C15.48 41.4603 15.37 41.3703 15.4 41.2103C15.42 41.0603 15.55 40.9903 15.67 40.9603C16.05 40.8603 16.42 40.9003 16.77 41.0703C16.91 41.1403 17.08 41.2503 17.05 41.4403C17.02 41.6203 16.85 41.6903 16.68 41.7203C16.58 41.7403 16.48 41.7303 16.38 41.7403H16.39Z" fill="white"></path><path d="M7.47982 44.4905C7.45982 44.6905 7.34982 44.8205 7.09982 44.8105C6.75982 44.8105 6.32982 44.3705 6.31982 44.0205C6.31982 43.7905 6.42982 43.6405 6.66982 43.6305C6.99982 43.6105 7.47982 44.1105 7.47982 44.4805V44.4905Z" fill="white"></path><path d="M8.24012 40.9195C8.59012 40.9295 9.01012 41.3595 9.01012 41.7195C9.01012 41.9695 8.88012 42.0895 8.64012 42.0795C8.28012 42.0795 7.87012 41.6395 7.87012 41.2795C7.87012 41.0295 7.99012 40.9095 8.24012 40.9195Z" fill="white"></path><path d="M8.98 37.29C9.14 37.31 9.33 37.32 9.32 37.58C9.31 37.85 8.79 38.21 8.4 38.22C8.22 38.22 8.01 38.22 8 37.96C8 37.68 8.55 37.29 8.98 37.29V37.29Z" fill="white"></path><path d="M13.6299 38.6396C13.5999 38.8996 13.5299 39.1796 13.1699 39.2096C12.8799 39.2396 12.5899 38.8296 12.6099 38.4496C12.6299 38.1596 12.6999 37.8696 13.0699 37.8396C13.3599 37.8196 13.6299 38.2096 13.6299 38.6396Z" fill="white"></path><path d="M43.7001 40.8701C44.5901 40.8701 45.4501 40.9301 46.8901 41.6101L48.6001 37.9901C46.4101 36.9501 44.9201 36.8701 43.7001 36.8701C42.5401 36.8701 39.3901 37.6701 37.0201 40.1501C35.1001 42.1501 34.1701 44.8201 34.3001 47.8501C34.4301 50.6101 35.3701 52.6301 37.1101 53.8501C38.4001 54.7601 39.9101 55.0501 41.3401 55.0501C43.3501 55.0501 45.2301 54.4701 46.1901 54.1801L45.5101 50.2701C44.4901 50.5801 40.9001 51.6301 39.4101 50.5801C38.7401 50.1101 38.3601 49.1301 38.3001 47.6701C38.0301 41.7601 43.6801 40.8801 43.7001 40.8801V40.8701Z" fill="white"></path><path d="M55.1998 43.7498C54.4598 43.4798 53.0798 42.9698 52.9098 42.5798C52.9098 41.9298 52.9098 41.0498 56.1798 40.8698C57.2398 40.8198 57.8198 41.0298 58.8498 41.4098C59.0698 41.4898 59.7698 41.7398 59.9498 41.8098L61.8998 38.3698L61.0498 37.9598C59.6898 37.4698 57.8298 36.7898 55.9598 36.8898C50.0998 37.2098 48.8898 40.1798 48.9098 42.6198C48.9298 45.7098 51.8698 46.7898 53.8098 47.5098C55.9198 48.2898 56.4998 48.6598 56.4898 49.2298C56.4898 49.9598 56.2398 50.2698 56.0598 50.4398C55.6098 50.8598 54.6998 51.1098 53.7398 51.0598C52.5798 51.0098 50.0398 50.4898 48.5998 49.9698L47.0698 53.4098C47.5098 53.5698 51.4198 54.9598 53.5698 55.0498C53.6798 55.0498 53.7998 55.0498 53.9398 55.0498C55.0898 55.0498 57.2298 54.8198 58.8098 53.3298C59.8898 52.3098 60.4698 50.8998 60.4898 49.2598C60.5298 45.7098 57.3198 44.5298 55.1998 43.7398V43.7498Z" fill="white"></path><path d="M68.7699 48.2899H71.7699L71.3899 50.5399L70.8499 50.7399C69.8599 51.0599 67.4699 51.4399 66.3799 50.6099C65.7999 50.1599 65.5399 49.2499 65.5999 47.9099C65.9099 41.6699 69.5399 40.9099 71.0899 40.8699C72.7899 40.8399 74.1499 41.5199 74.1599 41.5299L75.0899 39.7599L76.0299 37.9999C75.7999 37.8799 73.7299 36.8199 70.9899 36.8699C66.8999 36.9699 61.9899 39.8599 61.5999 47.7099C61.4299 51.1299 62.7899 52.8999 63.9499 53.7899C65.2899 54.8099 66.9299 55.1099 68.3899 55.1099C70.2499 55.1099 71.8199 54.6199 72.1499 54.5199L75.0699 53.4499L76.1099 44.7899H70.5099L68.7699 48.2999V48.2899Z" fill="white"></path><path d="M86.0499 36.87C83.9199 36.79 81.9899 37.55 80.4399 39.06C77.8399 41.6 76.9199 45.74 76.9499 47.75C77.0199 52.15 79.6299 55.11 83.4599 55.12H83.4699C86.0099 55.12 90.5099 54.04 92.2799 46.85C93.1899 43.15 92.2199 40.83 91.2299 39.52C90.0199 37.91 88.1199 36.95 86.0299 36.87H86.0499ZM88.4099 45.89C87.5499 49.36 85.8899 51.12 83.4799 51.12C81.2599 51.12 80.9799 48.72 80.9699 47.69C80.9499 46.52 81.6199 43.52 83.2599 41.92C83.9799 41.21 84.7999 40.87 85.7699 40.87C85.8199 40.87 85.8699 40.87 85.9199 40.87C86.7899 40.9 87.5899 41.3 88.0699 41.93C88.7299 42.8 88.8499 44.17 88.4299 45.89H88.4099Z" fill="white"></path><path d="M101.17 47.2604H107.52L108.12 43.9304H101.84L102.35 41.1004H110.12L110.98 37.1504H99.0098L95.8198 54.5104H108.21L108.73 50.5604H100.61L101.17 47.2604Z" fill="#F3B210"></path><path d="M169.02 47.2004H175.37L175.97 43.8904H169.69L170.2 41.0804H177.97L178.83 37.1504H166.86L163.67 54.4104H176.06L176.57 50.4804H168.46L169.02 47.2004Z" fill="#F3B210"></path><path d="M124.09 37.1504L119.34 45.3304L117.54 37.1504H112.55L109.36 54.5604L113.43 54.5404L115.18 45.0004L117.01 51.6204L120.33 51.6004L124.43 44.5404L122.71 54.5404L126.63 54.5004L129.75 37.1504H124.09Z" fill="#F3B210"></path><path d="M142.67 39.6304C141.37 37.6404 138.98 37.2204 138.71 37.1704L131.48 37.1504L128.34 54.4104L132.33 54.3704L133.27 49.3404H136.42C138.44 49.2204 142.15 47.9504 143.21 43.9504C143.75 41.9104 143.21 40.4804 142.66 39.6404L142.67 39.6304ZM139.35 42.9204C138.8 45.0004 136.62 45.3004 136.23 45.3404H134.02L134.8 41.1504H138.19C138.53 41.2404 139.1 41.4704 139.32 41.8204C139.47 42.0504 139.48 42.4204 139.35 42.9104V42.9204Z" fill="#F3B210"></path><path d="M145.78 36.9199L142.75 54.5099L146.83 54.4099L149.84 36.9199H145.78Z" fill="#F3B210"></path><path d="M163.31 44.5199C163.81 43.3699 163.77 40.8999 163.3 39.8099C162.37 37.6699 160.63 37.1999 160.15 37.0299L159.35 36.9199H151.66L148.49 54.4099H152.55L153.6 48.6199C153.6 48.6199 153.64 48.4099 153.66 48.4099C154.99 48.4299 157.17 49.0499 157.5 49.9899C158.48 52.7999 158.72 54.3599 158.72 54.3799L162.74 54.3999C162.73 54.3199 162.24 51.9599 161.33 48.8599C161.17 48.2999 160.93 47.8199 160.63 47.3999C161.79 46.5599 162.6 46.0999 163.29 44.5099L163.31 44.5199ZM156.99 44.6099C156.44 44.6099 155.84 44.5999 155.29 44.5999C154.95 44.5999 154.62 44.5999 154.34 44.5999L155.01 40.9099H158.62C159.13 40.9099 159.74 41.8599 159.71 42.4099C159.62 44.5299 157.81 44.6499 156.99 44.6099V44.6099Z" fill="#F3B210"></path></g><defs><clipPath id="clip0_1296_52248"><rect width="178.83" height="30.68" fill="white" transform="translate(0 30)"></rect></clipPath></defs></svg> 