<?xml version="1.0" encoding="UTF-8"?> <svg xmlns="http://www.w3.org/2000/svg" width="180" height="90" viewBox="0 0 180 90" fill="none"><g clip-path="url(#clip0_1296_52262)"><path d="M0.000214843 49.2205C0.210215 48.5705 0.370215 47.9005 0.620215 47.2705C1.49021 45.0905 3.17021 43.6605 5.14021 42.5205C6.72021 41.6105 8.51021 41.4505 10.2502 41.0705C11.6902 40.7605 13.1002 40.3705 14.5302 40.0005C15.3302 39.7905 15.8402 39.2305 16.1602 38.5205C16.7502 37.2505 17.2602 35.9505 17.8502 34.6805C18.7402 32.7605 20.2802 31.5605 22.2402 30.8905C25.0502 29.9405 27.7902 28.8405 29.9702 26.7605C30.8402 25.9305 31.5202 24.9105 32.2802 23.9805H32.4202C31.8802 26.3705 30.3802 28.1005 28.4302 29.4205C26.9402 30.4305 25.3002 31.2105 23.7402 32.1105C22.9302 32.5805 22.3002 33.1905 21.8602 34.0805C21.1102 35.5805 22.1302 37.0405 24.0002 36.8505C25.5202 36.7005 26.6102 35.7405 27.5402 34.6505C28.4102 33.6305 29.1702 32.5105 29.9702 31.4405L30.1502 31.5305C29.7002 32.4205 29.2702 33.3305 28.7902 34.2005C26.9702 37.4805 24.3702 39.9505 21.1002 41.8105C19.0002 43.0005 16.8102 43.8505 14.4602 44.2805C13.1802 44.5205 11.8602 44.4805 10.5602 44.6505C8.68021 44.8905 6.76021 44.9605 4.99021 45.7305C2.39021 46.8505 1.09021 48.9305 0.860215 51.6505C0.750215 52.9205 0.980215 54.2205 1.00021 55.5605C0.720215 54.4905 0.450215 53.4305 0.170215 52.3605C0.110215 52.1105 0.0402148 51.8705 -0.0297852 51.6205V49.2005L0.000214843 49.2205ZM11.4302 49.2805C11.5002 50.5405 10.3002 51.3705 9.36021 51.3605C8.00021 51.3605 7.00022 50.4805 7.01022 49.2305C7.01022 48.7605 7.10021 48.2805 7.15022 47.7905C5.22022 48.5405 2.93021 51.1205 2.73021 53.9405C2.61021 55.7405 3.64021 58.8305 4.79022 59.7705C5.23022 55.5805 6.32022 53.5105 8.06021 53.5705C8.44022 55.5105 9.27021 56.3805 10.9802 56.6105C12.6802 56.8305 14.0102 56.1005 15.2502 54.9505C15.1602 55.6105 15.0302 56.2305 14.7502 56.7705C13.5802 59.0605 11.5202 60.1505 9.15021 60.7805C8.44021 60.9705 7.71022 61.1305 7.00022 61.3005C7.14021 61.4905 7.26021 61.5705 7.39021 61.5805C8.85021 61.6405 10.3202 61.8105 11.7802 61.7205C13.6502 61.6005 15.3702 60.8805 16.9902 59.9305C18.5602 59.0105 19.6902 57.6705 20.5802 56.1505C21.2602 54.9805 21.8602 53.7105 22.2602 52.4205C22.9202 50.3205 22.8802 48.1305 22.7102 45.9405C22.6102 44.6705 23.1602 43.6405 24.0202 42.7505C24.3702 42.3805 24.7702 42.0505 25.2302 41.6105C24.0702 41.6505 23.1802 42.0205 22.3802 42.6405C20.8702 43.8005 20.3402 45.4305 20.1502 47.2405C19.9402 49.2405 18.3102 50.4505 16.3502 50.0605C15.4902 49.8905 14.8302 49.4205 14.5402 48.5305C14.2502 47.6605 14.6702 47.0705 15.3002 46.5605C15.5602 46.3505 15.8202 46.1505 16.0802 45.9405C13.9802 45.3205 11.2802 46.4305 11.4402 49.2805H11.4302ZM31.2102 37.6205C30.7002 37.8205 30.1602 37.9605 29.6902 38.2305C27.6202 39.3705 26.6502 41.3105 26.3202 43.5005C26.0402 45.3605 26.1902 47.2905 25.9602 49.1705C25.7602 50.8505 25.4602 52.5605 24.9102 54.1505C23.9002 57.0605 21.5702 58.9505 19.2102 60.7205C17.2802 62.1705 14.9602 62.7905 12.6902 63.4905C12.2602 63.6205 11.8402 63.7805 11.2702 63.9705C11.5402 64.1205 11.6202 64.1805 11.7102 64.2005C14.3902 64.8905 17.1102 65.4605 19.8902 65.1105C22.0002 64.8405 24.0502 64.2605 25.5402 62.5505C25.6502 62.4205 25.7302 62.2705 25.9302 61.9805C24.2902 62.2405 22.8202 62.8005 21.1302 62.1005C21.5202 61.9705 21.7302 61.8905 21.9502 61.8205C26.6702 60.4605 29.3902 56.6605 29.8502 52.0505C30.0802 49.6905 29.8102 47.3205 29.2502 44.9905C28.7902 43.0905 28.8702 41.2005 29.9802 39.5005C30.3702 38.9005 30.8602 38.3505 31.3102 37.7805L31.2302 37.6005L31.2102 37.6205ZM5.41021 40.2305C6.92021 39.9205 8.42021 39.5605 9.95021 39.4205C12.3502 39.1905 14.4202 37.7105 15.1602 35.4105C15.4602 34.5005 15.5602 33.5505 15.3602 32.4705C14.8702 33.1205 14.4802 33.6905 14.0402 34.2005C12.7002 35.7805 10.9502 36.5905 8.94021 36.9205C7.72021 37.1205 6.59022 37.5505 5.65022 38.3505C4.95022 38.9405 4.39022 39.6605 4.32022 40.7605C4.76022 40.5405 5.07022 40.3005 5.42022 40.2205L5.41021 40.2305Z" fill="url(#paint0_linear_1296_52262)"></path><path d="M58.8798 36.6203C58.7998 37.1103 58.7398 37.5303 58.6598 37.9403C58.1498 40.3703 57.6298 42.8003 57.1098 45.2303C56.1398 49.7503 55.1898 54.2703 54.1798 58.7803C53.8498 60.2403 54.1398 60.0903 52.5398 60.1003C51.2598 60.1003 49.9798 60.1003 48.5298 60.1003L50.4498 50.5403C50.1698 50.5203 49.9698 50.4803 49.7598 50.4803C47.3998 50.4803 45.0498 50.4803 42.6898 50.4703C42.1998 50.4703 41.9798 50.6003 41.8798 51.1103C41.3098 53.9003 40.6898 56.6803 40.0998 59.4603C40.0198 59.8403 39.9198 60.1203 39.4298 60.1103C37.9298 60.0903 36.4298 60.1103 34.9298 60.1003C34.8398 60.1003 34.7498 60.0603 34.5698 60.0203C34.7198 59.1503 34.8498 58.2903 35.0198 57.4403C35.3398 55.8603 35.7098 54.2903 36.0298 52.7203C36.6098 49.8903 37.1598 47.0503 37.7198 44.2103C38.0398 42.5803 38.3698 40.9603 38.6998 39.3403C38.8498 38.6003 39.0198 37.8703 39.1798 37.1303C39.2398 36.8403 39.3198 36.5703 39.6998 36.5803C41.3698 36.5903 43.0298 36.6003 44.6998 36.6103C44.7398 36.6103 44.7798 36.6503 44.8898 36.7103L42.9498 46.0703C43.2498 46.1003 43.4998 46.1303 43.7398 46.1303C46.0298 46.1303 48.3098 46.1303 50.5998 46.1303C51.4298 46.1303 51.4298 46.1303 51.5998 45.2903C52.1098 42.6803 52.6198 40.0703 53.1298 37.4703C53.2498 36.8703 53.6232 36.5703 54.2498 36.5703C55.5098 36.5703 56.7698 36.5703 58.0298 36.5703C58.2798 36.5703 58.5398 36.6003 58.8598 36.6203H58.8798Z" fill="white"></path><path d="M65.7098 53.5204C65.9498 52.3404 66.1798 51.2304 66.4098 50.1304C66.4398 49.9904 66.5198 49.8604 66.5198 49.7204C66.5398 49.2404 66.8298 49.1704 67.2398 49.1704C68.9998 49.1904 70.7598 49.1904 72.5198 49.1704C72.8798 49.1704 73.3498 49.3804 73.4898 48.7504C73.6998 47.7504 73.5698 47.1304 72.9698 46.8704C72.7198 46.7604 72.4198 46.7004 72.1398 46.7004C70.5698 46.7004 68.9998 46.7104 67.4298 46.7504C66.4098 46.7704 65.6998 47.3104 65.3498 48.2804C65.2098 48.6604 65.0898 49.0504 65.0198 49.4404C64.7198 51.1204 64.4298 52.8004 64.1498 54.4804C63.9598 55.5804 64.0398 55.7004 65.1398 55.7004C67.7098 55.7204 70.2798 55.7204 72.8498 55.7204C73.8698 55.7204 74.8998 55.7204 75.9198 55.7204C76.0798 55.7204 76.2398 55.7604 76.4098 55.7804C76.4098 55.9104 76.4398 56.0004 76.4198 56.0904C76.1498 57.2904 75.8998 58.4904 75.5898 59.6804C75.5398 59.8604 75.2398 59.9704 75.0398 60.1104C75.0098 60.1304 74.9498 60.1104 74.8998 60.1104C70.2598 60.1104 65.6198 60.1104 60.9798 60.1104C60.5798 60.1104 60.1698 60.0404 59.7798 59.9304C58.7198 59.6404 58.0898 58.8804 58.1098 57.7304C58.1298 56.7604 58.2598 55.7904 58.4498 54.8404C58.9798 52.0504 59.5798 49.2704 60.1198 46.4704C60.5398 44.3004 62.6998 42.6804 64.6798 42.4704C65.4298 42.3904 66.1998 42.3504 66.9598 42.3504C69.8198 42.3404 72.6698 42.3304 75.5298 42.3504C76.1698 42.3504 76.8198 42.4304 77.4398 42.5804C78.8798 42.9204 79.6298 43.9704 79.3998 45.4304C79.0798 47.5104 78.6498 49.5704 78.2598 51.6404C78.1798 52.0604 78.0698 52.4704 78.0098 52.8904C77.9398 53.4104 77.6898 53.5904 77.1498 53.5804C75.1698 53.5504 73.1998 53.5704 71.2198 53.5704C69.6498 53.5704 68.0798 53.5704 66.5098 53.5704C66.2798 53.5704 66.0498 53.5504 65.6998 53.5304L65.7098 53.5204Z" fill="white"></path><path d="M128.33 48.8096C128 50.2996 127.71 51.6096 127.43 52.9296C127.33 53.3896 127.01 53.3696 126.67 53.3696C125.1 53.3696 123.53 53.3896 121.96 53.3896C121.4 53.3896 120.94 53.5196 120.61 54.0196C120.08 54.7996 120.45 55.6996 121.39 55.7196C123.27 55.7596 125.15 55.7496 127.03 55.6896C127.97 55.6596 128.79 54.8396 129.01 53.7496C129.33 52.1696 129.6 50.5896 129.89 48.9996C129.97 48.5796 130.03 48.1596 130.09 47.7296C130.2 46.9296 130.13 46.8096 129.3 46.7796C127.95 46.7396 126.59 46.7496 125.23 46.7396C122.92 46.7396 120.61 46.7396 118.31 46.7396C118.13 46.7396 117.95 46.6996 117.69 46.6596C117.93 45.6596 118.14 44.7196 118.38 43.7796C118.83 41.9796 118.42 42.2396 120.33 42.2396C124.38 42.2296 128.42 42.2196 132.47 42.2496C133.15 42.2496 133.84 42.3996 134.5 42.5896C135.52 42.8796 136.09 43.9096 135.95 45.2296C135.85 46.2196 135.66 47.1996 135.47 48.1696C135.13 49.9596 134.77 51.7496 134.4 53.5396C133.99 55.5496 133.56 57.5596 133.15 59.5796C133.07 59.9796 132.85 60.0596 132.49 60.0496C131.56 60.0396 130.63 60.0496 129.71 60.0496C125.97 60.0496 122.24 60.0696 118.5 60.0296C117.78 60.0296 117.04 59.8796 116.34 59.6696C115.34 59.3696 114.88 58.5996 114.86 57.5696C114.81 55.3996 115.35 53.3396 116.05 51.3296C116.44 50.1996 117.33 49.4396 118.53 49.1896C119.45 48.9996 120.4 48.8496 121.34 48.8196C123.36 48.7696 125.38 48.7996 127.41 48.7996C127.66 48.7996 127.92 48.7996 128.35 48.7996L128.33 48.8096Z" fill="white"></path><path d="M178.06 53.5097H166.39C166.51 52.7697 166.61 52.0697 166.75 51.3897C166.85 50.8797 167.01 50.3897 167.11 49.8797C167.25 49.1797 167.24 49.1697 167.99 49.1697C169.73 49.1697 171.46 49.1697 173.2 49.1697C173.46 49.1697 173.72 49.1697 174.03 49.1697C174.09 48.6197 174.23 48.1197 174.18 47.6497C174.14 47.3597 173.86 47.0197 173.59 46.8497C173.33 46.6897 172.95 46.6797 172.62 46.6797C171 46.6797 169.38 46.7297 167.77 46.7197C166.4 46.7197 165.61 47.7597 165.42 48.7197C165.03 50.7197 164.71 52.7397 164.36 54.7497C164.23 55.5097 164.31 55.6097 165.1 55.6697C165.72 55.7197 166.34 55.7097 166.95 55.7097C169.92 55.7097 172.9 55.6997 175.87 55.6897C176.12 55.6897 176.38 55.6897 176.75 55.6897C176.61 56.3797 176.5 56.9497 176.37 57.5197C176.23 58.1397 176.02 58.7597 175.92 59.3897C175.83 59.9397 175.58 60.1097 175.02 60.1097C171.45 60.0897 167.88 60.0997 164.31 60.0997C163.38 60.0997 162.45 60.1297 161.53 60.0997C159.37 60.0297 158.41 58.7197 158.77 56.6597C159.02 55.2697 159.29 53.8797 159.56 52.4897C159.95 50.5397 160.39 48.5997 160.72 46.6397C161.11 44.2697 163.33 42.7297 165.29 42.4697C165.95 42.3797 166.62 42.3397 167.28 42.3397C170.11 42.3297 172.94 42.3197 175.78 42.3397C176.49 42.3397 177.2 42.4697 177.89 42.6197C179.04 42.8697 179.78 44.0097 179.66 44.9697C179.52 46.0697 179.32 47.1597 179.12 48.2497C178.88 49.5997 178.64 50.9597 178.37 52.3097C178.29 52.7197 178.14 53.1097 178.02 53.5197L178.06 53.5097Z" fill="white"></path><path d="M136.12 60.0004C136.39 58.6604 136.65 57.4204 136.89 56.1704C136.97 55.7604 137.25 55.7504 137.58 55.7504C139.34 55.7504 141.1 55.7504 142.86 55.7504C145.1 55.7504 147.34 55.7504 149.57 55.7504C150.19 55.7504 150.78 55.6904 151.31 55.2704C151.67 54.9904 151.75 54.6704 151.67 54.2704C151.59 53.8404 151.32 53.5404 150.88 53.4504C150.63 53.4004 150.36 53.4104 150.1 53.4104C147.43 53.4104 144.77 53.4104 142.1 53.4104C140.99 53.4104 140 53.0604 139.22 52.2404C138.42 51.3904 137.99 50.4504 138.33 49.2304C138.65 48.0704 138.77 46.8604 139.09 45.7004C139.7 43.5104 141.18 42.3604 143.61 42.4004C146.99 42.4504 150.37 42.4104 153.75 42.4104C155.27 42.4104 156.8 42.4104 158.32 42.4104C158.51 42.4104 158.69 42.4404 158.95 42.4604C158.92 42.7204 158.91 42.9504 158.86 43.1704C158.67 44.1004 158.44 45.0204 158.28 45.9604C158.18 46.5104 157.92 46.6904 157.37 46.6904C153.56 46.6704 149.75 46.6904 145.94 46.6804C145.18 46.6804 144.47 46.7904 143.87 47.2904C143.21 47.8404 143.3 48.5904 144.1 48.8904C144.42 49.0104 144.8 49.0504 145.15 49.0504C147.17 49.0604 149.2 49.0504 151.22 49.0504C152.05 49.0504 152.88 49.1104 153.71 49.1604C155.5 49.2604 156.53 50.5204 156.67 52.2204C156.78 53.5004 156.53 54.7304 156.12 55.9204C155.84 56.7204 155.53 57.5204 155.14 58.2704C154.59 59.3104 153.62 59.8004 152.49 59.9804C152.07 60.0504 151.64 60.0604 151.21 60.0604C146.47 60.0604 141.74 60.0604 137 60.0604C136.72 60.0604 136.45 60.0304 136.11 60.0104L136.12 60.0004Z" fill="white"></path><path d="M112.46 55.7299C112.17 57.0899 111.89 58.3099 111.65 59.5399C111.57 59.9599 111.4 60.1399 110.95 60.1399C106.88 60.1299 102.81 60.1599 98.7402 60.1199C96.6702 60.0999 95.6102 58.7999 95.9702 56.7199C96.3202 54.6899 96.7902 52.6799 97.2002 50.6599C97.4802 49.2699 97.7602 47.8699 98.0202 46.4699C98.4802 44.0299 101.04 42.4399 103.09 42.4299C107.02 42.4299 110.95 42.4299 114.87 42.4199C114.98 42.4199 115.1 42.4399 115.25 42.4599C115.25 42.6899 115.28 42.8999 115.25 43.0999C115.09 44.0599 114.88 45.0099 114.75 45.9699C114.68 46.4999 114.48 46.6799 113.93 46.6799C111.22 46.6699 108.5 46.7499 105.79 46.6999C103.72 46.6599 103.13 47.4799 102.74 49.2499C102.47 50.4799 102.33 51.7299 102.11 52.9699C102 53.5999 101.84 54.2199 101.74 54.8399C101.64 55.4499 101.72 55.5699 102.33 55.6199C102.99 55.6799 103.66 55.6899 104.33 55.6899C106.76 55.6899 109.19 55.6799 111.61 55.6799C111.87 55.6799 112.12 55.6999 112.47 55.7199L112.46 55.7299Z" fill="white"></path><path d="M87.0801 60.0496C88.6801 52.1896 90.2601 44.4496 91.8601 36.6396H97.4401C97.1101 38.2696 96.8001 39.8396 96.4801 41.4096C96.1301 43.0796 95.7701 44.7396 95.4201 46.4096C95.0701 48.0496 94.7401 49.6996 94.3901 51.3396C93.8201 54.0196 93.2401 56.6996 92.6701 59.3797C92.5201 60.0597 92.5001 60.0996 91.7801 60.0996C90.4701 60.0996 89.1601 60.0996 87.8601 60.0996C87.6501 60.0996 87.4401 60.0696 87.0901 60.0496H87.0801Z" fill="white"></path><path d="M78.9502 60.0401C79.2002 58.7301 79.4302 57.5301 79.6702 56.3301C80.1202 54.1301 80.5802 51.9201 81.0202 49.7201C81.5902 46.8901 82.1402 44.0501 82.7102 41.2201C82.9902 39.8301 83.2902 38.4501 83.5702 37.0601C83.6302 36.7701 83.7402 36.5801 84.0702 36.5801C85.6902 36.5801 87.3002 36.5801 88.9202 36.5901C89.0102 36.5901 89.1002 36.6501 89.2502 36.7001C88.9402 38.1701 88.6402 39.6201 88.3302 41.0801C87.9102 43.1001 87.4802 45.1101 87.0602 47.1201C86.5902 49.3601 86.1302 51.6101 85.6602 53.8601C85.2702 55.7101 84.8602 57.5601 84.4702 59.4101C84.3702 59.8901 84.1802 60.1401 83.6102 60.1201C82.2802 60.0701 80.9502 60.1101 79.6202 60.1001C79.4402 60.1001 79.2502 60.0701 78.9302 60.0401H78.9502Z" fill="white"></path></g><defs><linearGradient id="paint0_linear_1296_52262" x1="2.48021" y1="58.0905" x2="39.7002" y2="36.6005" gradientUnits="userSpaceOnUse"><stop stop-color="#F70015"></stop><stop offset="0.89" stop-color="#FFB000"></stop></linearGradient><clipPath id="clip0_1296_52262"><rect width="179.7" height="41.24" fill="white" transform="translate(0 24)"></rect></clipPath></defs></svg> 