<?xml version="1.0" encoding="UTF-8"?> <svg xmlns="http://www.w3.org/2000/svg" width="180" height="90" viewBox="0 0 180 90" fill="none"><g clip-path="url(#clip0_1296_52227)"><g clip-path="url(#clip1_1296_52227)"><path d="M114.67 72.7284L103.597 56.5988L103.387 56.6588L91.9727 70.8561L83.0719 74.6808L86.9866 61.2544H76.0733L75.3024 60.5836V61.2544H56.3893L53.3656 58.8315H42.8228L40.1295 61.2544H27.5942L23.8596 58.0806L20.1351 61.2544H8.66108L0.891602 54.9668V37.4854L8.42079 31.2779H20.3253L23.9597 34.3216L27.5541 31.2779H40.1395L42.8328 33.7409H53.1654L56.0489 31.2278H68.424L72.1485 34.2815L75.793 31.1878H77.1446L73.5603 27.6835L87.5373 25.8813L109.104 25.1304L123.501 27.5433L124.993 29.4056L129.058 26.2718L134.174 27.4332L136.197 24.1091L140.242 23.0879L145.748 28.2141L147.831 24.3594L151.545 22.1768L157.192 25.9914L161.528 30.577L161.698 34.5919L154.199 47.5477L170.709 48.0183L178.188 50.8718L172.671 56.3284L143.295 61.4146L141.023 60.4635C137.358 60.7939 132.162 61.2745 130.62 61.4447L130.58 61.5147H130.119L129.438 61.695L129.278 61.3245L128.988 61.2244V60.934C128.758 60.7338 128.407 60.4535 128.037 60.1431L127.957 60.2132L120.528 60.8339L125.023 75.3717L114.68 72.7485L114.67 72.7284Z" fill="black"></path><path d="M151.515 23.3287L156.541 26.7329L160.546 30.968L160.686 34.3221L152.486 48.4794L170.508 48.99L176.375 51.2227L172.18 55.3678L143.405 60.3539L141.172 59.4227C141.172 59.4227 130.309 60.4039 129.999 60.494C129.949 60.3939 127.986 58.822 127.986 58.822L127.516 59.2425L119.176 59.9434L123.511 73.9605L115.271 71.8679L103.997 55.4479L102.786 55.7983L91.3317 70.0457L84.6135 72.9292L88.308 60.2638H76.4335L74.2909 58.4015V60.2638H56.7395L53.7158 57.8408H42.432L39.7387 60.2638H27.9544L23.8594 56.7695L19.7644 60.2638H9.02128L1.89258 54.4867V37.9565L8.78098 32.2796H19.9546L23.9595 35.6337L27.9143 32.2796H39.7387L42.432 34.7526H53.5256L56.4091 32.2396H68.0533L72.1483 35.5937L76.1532 32.1895H79.5974L75.7327 28.4149L87.6572 26.883L109.033 26.1421L122.96 28.475L124.823 30.8078L129.298 27.3636L134.655 28.5751L136.847 24.9907L139.971 24.1998L146.028 29.8366L148.592 25.0909L151.525 23.3688L151.515 23.3287ZM151.595 20.9658L150.504 21.6066L147.57 23.3287L147.09 23.609L146.819 24.0996L145.488 26.5727L141.333 22.7079L140.532 21.967L139.47 22.2374L136.347 23.0283L135.556 23.2286L135.135 23.9294L133.693 26.2923L129.739 25.4012L128.817 25.191L128.077 25.7617L125.163 28.0044L124.532 27.2134L124.052 26.6127L123.301 26.4826L109.374 24.1497L109.173 24.1197H108.973L87.5971 24.8706H87.507L87.4169 24.8906L75.4924 26.4225L71.3874 26.9531L74.351 29.8467L75.0418 30.5175L74.8716 30.6576L72.1383 32.9805L69.3349 30.6877L68.7842 30.2371H55.6782L55.1175 30.7277L52.7947 32.7502H43.233L41.1204 30.8078L40.5497 30.2772H27.2035L26.6428 30.7478L23.9695 33.0105L21.2562 30.7377L20.6955 30.2672H8.07012L7.51944 30.7277L0.621028 36.4047L-0.109863 37.0054V55.4379L0.631041 56.0386L7.75974 61.8157L8.31041 62.2662H20.5153L21.076 61.7856L23.8794 59.4027L26.6828 61.7856L27.2435 62.2662H40.5297L41.1004 61.7556L43.223 59.8533H53.035L55.518 61.8357L56.0687 62.2762H85.6748L82.7312 72.3785L81.5397 76.4535L85.4445 74.7815L92.1627 71.898L92.6233 71.6977L92.9336 71.3072L103.487 58.1812L113.659 72.9993L114.089 73.6201L114.82 73.8103L123.06 75.9028L126.525 76.7839L125.473 73.3698L121.879 61.7356L127.736 61.245H127.826C127.886 61.285 127.946 61.3451 128.006 61.3851L127.986 61.9258L128.647 62.1461L129.018 62.8469L130.289 62.5065H131.17L131.25 62.3763C133.163 62.1861 137.688 61.7656 140.902 61.4752L142.684 62.2161L143.225 62.4364L143.796 62.3363L172.571 57.3502L173.192 57.2401L173.642 56.7995L177.837 52.6545L180.05 50.4718L177.146 49.3605L171.279 47.1277L170.959 47.0076H170.618L155.961 46.5771L162.468 35.3333L162.759 34.8327L162.739 34.252L162.599 30.8979L162.569 30.147L162.058 29.6064L158.053 25.3712L157.903 25.211L157.723 25.0909L152.697 21.6867L151.645 20.9758L151.595 20.9658Z" fill="white"></path><path d="M17.1913 43.213H22.6079V39.2682L18.6231 35.9141H10.1728L5.59717 39.5685V52.5744L10.1327 56.4191H18.6231L22.6079 53.1751V49.3605H17.2614L16.4604 51.463H12.5056L11.7046 50.9023V41.7812L12.5456 41.0904H16.4905L17.1913 43.213Z" fill="#FEFDFE"></path><path d="M25.1514 39.168L29.2764 35.9141H38.3174L42.2322 39.168V43.1429H36.7856L36.1248 41.0203L32.1699 41.0904L31.2688 41.611V42.8325L32.0298 43.4232L39.2986 44.6848L42.2322 47.1277L42.4425 53.1751L38.2473 56.4191H29.2063L25.1514 53.3153V49.01H30.7081L31.2989 51.5331H35.5641L36.295 50.8623V49.2904L35.6642 48.7697L28.7858 47.6183L25.1514 44.895V39.168Z" fill="#FEFDFE"></path><path d="M50.9622 38.3965H44.7847V44.574H50.9622V38.3965Z" fill="#FEFDFE"></path><path d="M50.9622 47.8594H44.7847V54.0369H50.9622V47.8594Z" fill="#FEFDFE"></path><path d="M53.165 39.6887L57.6005 35.9141H66.6815L70.6263 39.0279V43.1429L65.1797 43.3231L64.619 41.0904L60.3638 41.0503L59.4127 41.7111V50.7922L60.2236 51.423H63.5377L64.5489 50.7622L64.589 47.8586H61.8957V44.3043H70.6263V56.4191H65.9807L65.39 54.9873L63.778 56.4191H58.021L53.165 52.7146V39.6887Z" fill="#FEFDFE"></path><path d="M86.4158 35.9141H77.4749L73.1396 39.4784V52.7846L77.4349 56.4191H86.3057L90.671 52.8247V39.4784L86.4058 35.9141H86.4158ZM84.6337 50.7622L83.6925 51.463H80.2683L79.2171 50.8022V41.7211L80.2683 40.8501H83.6925L84.6337 41.7912V50.7722V50.7622Z" fill="#FEFDFE"></path><path d="M146.859 51.4629L156.541 33.6712L156.03 31.5786L152.536 29.5762L140.712 51.4629L134.614 51.553L143.645 34.4621L143.695 32.3696L140.852 29.8065L130.239 48.1588L132.802 40.099L133.172 33.3508L130.519 31.9991L116.642 45.1352L112.868 51.0524L111.196 46.4468C111.196 46.4468 124.091 37.8362 123.541 35.4133C123.35 34.5823 121.068 31.5486 103.466 30.0067C92.7531 30.5173 89.9196 30.7076 89.9196 30.7076L84.2627 31.919L102.145 35.3432L88.7982 68.0331H89.4791L101.093 51.4829L105.609 49.9811L118.184 69.3647L118.785 69.1344L114.5 56.9295L127.025 55.3977L128.186 53.205C128.186 53.205 128.136 55.4377 131.45 56.509C133.823 56.3689 141.883 55.628 141.883 55.628L142.484 56.4189L169.076 52.5542V52.0436L146.859 51.4829V51.4629ZM105.509 42.9425L108.442 35.8138L115.24 37.7261L114.399 38.6572L105.509 42.9425ZM123.3 51.2326L118.504 52.4441L119.015 51.2827L126.975 41.6008L123.3 51.2426V51.2326Z" fill="#F84031"></path></g></g><defs><clipPath id="clip0_1296_52227"><rect width="180" height="90" fill="white"></rect></clipPath><clipPath id="clip1_1296_52227"><rect width="180.11" height="55.8081" fill="white" transform="translate(-0.109863 20.9658)"></rect></clipPath></defs></svg> 